# xmcd
#
# Track frame offsets:
#	182
#	15057
#	31575
#	44605
#	64462
#	75780
#	89790
#	107885
#	124132
#	139347
#
# Disc length: 2017 seconds
#
# Revision: 0
# Processed by: cddbd v1.4PL0 Copyright (c) Steve Scherf et al.
# Submitted via: dBpowerAMP V4.0
#
DISCID=7d07df0a
DTITLE=Randy Travis - In His Own Words
DYEAR=1900
DGENRE=Country
TTITLE0=I Wish It Would Rain
TTITLE1=I Told You So
TTITLE2=Heroes And Friends
TTITLE3=Reasons I Cheat
TTITLE4=I'd Do It All Again With You
TTITLE5=Forever Together
TTITLE6=Promises
TTITLE7=I'd Surrender All
TTITLE8=The Box
TTITLE9=Better Class Of Losers
EXTD=
EXTT0=
EXTT1=
EXTT2=
EXTT3=
EXTT4=
EXTT5=
EXTT6=
EXTT7=
EXTT8=
EXTT9=
PLAYORDER=
